<?xml version="1.0" encoding="UTF-8" standalone="no"?>
<!-- Created with Inkscape (http://www.inkscape.org/) -->

<svg
   width="58.902031mm"
   height="74.444489mm"
   viewBox="0 0 58.902031 74.444489"
   version="1.1"
   id="svg1"
   inkscape:version="1.3 (0e150ed, 2023-07-21)"
   sodipodi:docname="logo.svg"
   xml:space="preserve"
   xmlns:inkscape="http://www.inkscape.org/namespaces/inkscape"
   xmlns:sodipodi="http://sodipodi.sourceforge.net/DTD/sodipodi-0.dtd"
   xmlns="http://www.w3.org/2000/svg"
   xmlns:svg="http://www.w3.org/2000/svg"><sodipodi:namedview
     id="namedview1"
     pagecolor="#ffffff"
     bordercolor="#000000"
     borderopacity="0.25"
     inkscape:showpageshadow="2"
     inkscape:pageopacity="0.0"
     inkscape:pagecheckerboard="0"
     inkscape:deskcolor="#d1d1d1"
     inkscape:document-units="mm"
     inkscape:zoom="2"
     inkscape:cx="159.25"
     inkscape:cy="97.25"
     inkscape:window-width="1920"
     inkscape:window-height="1011"
     inkscape:window-x="0"
     inkscape:window-y="0"
     inkscape:window-maximized="1"
     inkscape:current-layer="g32581"
     showgrid="false" /><defs
     id="defs1" /><g
     inkscape:label="Layer 1"
     inkscape:groupmode="layer"
     id="layer1"
     transform="translate(-88.460161,-53.781779)"><g
       id="g4246"
       transform="matrix(0.3755619,0,0,0.3755619,120.34916,43.653418)"><g
         id="g32581"
         transform="translate(139.32041,53.294982)"><path
           style="fill:#dfe3dc;fill-opacity:1;stroke-width:1.09656"
           d="m -172.9872,134.88759 c -1.14904,-4.84428 -6.99393,-14.04519 2.39139,-11.99271 -1.29312,2.48254 0.11118,11.34536 -2.39139,11.99271 z m -16.21027,-2.6245 c 0.35749,-2.37563 -6.66135,-10.6563 -1.5396,-12.27598 6.39448,-2.67582 1.5322,13.24178 1.59512,12.39066 z m 44.61125,-7.69382 c 1.04363,-3.8484 -0.0482,-12.23769 1.65147,-13.9814 1.3224,4.32219 1.92561,12.10777 -1.65147,13.9814 z m -19.27404,-1.00378 c -4.22588,-1.27809 -2.18642,-13.65223 -0.0936,-5.21163 2.17738,0.11597 2.86271,6.66931 0.0936,5.21163 z m -19.05147,-1.14762 c -2.17471,-1.48439 -0.41687,-6.03001 -0.99655,-8.75606 1.51048,-3.83433 5.73545,1.24422 2.01807,3.39041 -0.46893,1.37838 1.49982,6.4316 -1.02152,5.36565 z m 34.67677,-10.77392 c -3.97307,0.3788 -2.29276,-8.8161 1.41545,-5.52601 2.21823,0.39045 -1.22183,6.54576 -1.41545,5.52601 z m -8.32259,-1.37606 c 0.13502,-2.41038 -0.11517,-10.721702 4.47022,-5.31802 0.42074,6.88713 -2.26435,4.00562 -4.47022,5.31802 z m -37.67793,-1.8015 c -0.23593,-5.45397 -1.12935,-13.482186 2.24379,-17.521115 10.3448,0.260484 -3.62336,3.197117 -1.36165,9.325025 -0.93498,1.2209 0.38751,9.61596 -0.88214,8.19609 z m 7.40393,-4.13167 c -0.77655,-8.575616 7.34928,-17.930021 15.57374,-19.414806 -4.20765,3.219682 -9.33279,6.161788 -12.23646,11.125028 -2.37466,1.405099 -2.44289,8.761998 -3.33728,8.289778 z m 42.61066,-10.723256 c 4.82087,-4.61803 8.76864,-14.93468 12.62727,-17.521746 -2.80711,6.564162 -5.66456,14.479111 -12.24272,17.902775 -0.0288,-0.196677 -1.07104,0.316311 -0.38455,-0.381029 z m 58.090647,-4.278974 c 4.644557,-1.574656 2.777309,-5.497541 1.505395,-7.266206 2.05624,-1.470626 14.959594,-9.585518 8.194461,-3.78576 -5.305506,3.660118 -6.259886,5.990674 0.342514,4.783914 1.242917,1.204109 -10.04518,6.775415 -10.04237,6.268052 z m -81.390017,-5.745326 c 0.31412,-9.013546 13.04395,-10.669662 20.10001,-12.662371 2.91865,-0.573297 20.07698,-5.217109 10.44769,-1.001835 -6.25524,2.440573 -13.2944,2.210774 -19.40318,5.400004 -4.17899,1.522129 -9.51087,5.600538 -11.11662,8.295064 z m -7.41881,-5.10465 c -0.39415,-5.0419 -4.82244,-10.94538 -8.34557,-12.307605 -2.32029,-1.363035 -3.57205,1.336295 -6.10716,0.454443 0.45727,6.545637 -2.09357,-4.918126 4.31145,-2.245436 7.41575,-0.04203 7.73668,5.094799 11.01561,10.395783 0.51101,1.008871 -0.55284,7.868317 -0.87433,3.702815 z m 65.97742,-1.406388 c -0.10734,-4.363667 11.611609,-14.693289 5.23605,-4.481948 -1.44421,1.698354 -3.18471,3.649377 -5.23605,4.481948 z M -182.3674,62.483115 c -2.00647,-7.282623 4.3128,-19.163653 12.49229,-22.70141 3.16487,-1.618645 7.00409,-0.946371 10.09239,0.540079 -11.86159,-0.749561 -21.01608,11.119982 -21.48863,22.122993 l 0.0617,0.389508 -1.15777,-0.35116 z m 91.555938,-2.169126 c 2.542032,-2.444044 2.326242,-7.51297 3.4446,-9.827843 5.477219,-4.723218 -4.016283,-0.733169 -6.317246,1.710989 -4.945073,0.685177 13.791489,-11.173794 7.931941,-1.96135 -2.08404,3.12151 -0.99477,8.736604 -5.059295,10.078204 z m -69.556918,-1.10404 c 0.70709,-4.726773 6.24115,-9.613135 10.91983,-12.521756 3.32643,-1.630199 7.83521,-4.826295 11.34057,-3.405847 -5.213,2.677709 -12.35705,5.305889 -16.72009,10.230758 -1.80405,1.280708 -4.73334,5.727284 -5.54031,5.696845 z m 51.04978,-18.443558 c -6.6016,-2.550918 8.88951,0.92643 10.253399,-2.955849 5.645149,-0.266827 11.819234,-12.061336 13.774733,-10.554783 -1.653967,6.867101 -9.388679,9.819738 -15.080892,12.944695 -2.87632,0.729964 -6.04677,1.349666 -8.94724,0.565937 z m -25.77685,-3.028902 c -1.04349,-6.222372 -5.38686,-12.699376 -1.21287,-18.721763 0.12778,5.670136 -0.64819,10.678869 1.5453,16.513318 0.68588,1.482092 0.34504,6.254105 -0.33243,2.208445 z m -73.46359,-0.844981 c -2.37735,-1.733561 -12.59603,-10.969577 -3.91114,-6.283041 4.09572,0.643227 11.70501,6.73324 3.91114,6.283041 z m 10.49973,-8.716152 c -7.47951,-5.476425 -15.20672,-10.619075 -22.5605,-16.266581 5.11352,-0.678521 10.78994,-6.0462966 15.38932,-5.0100153 2.92987,3.0796121 8.7144,8.1509263 0.43601,5.7632143 -6.57647,0.09486 4.72029,8.391155 5.11023,11.271127 0.58569,1.050972 5.85248,7.694679 1.62494,4.242255 z M -85.368184,24.47187 c 3.953318,-4.385161 5.91016,-11.45573 8.113292,-17.3731016 1.513561,-5.010293 1.966144,-10.441238 -3.886774,-4.4444797 -5.025912,5.052114 -11.423879,4.7545952 -16.092865,6.52155 -6.974389,-0.00395 -8.063339,4.7141893 -9.629649,10.6533903 0.11863,-3.341503 3.65024,-13.0826979 -2.27678,-6.101208 -2.26187,2.02382 -4.43013,4.705678 -3.51441,1.287271 -2.85121,3.342962 -2.94962,5.133851 -2.8309,5.341883 -4.8129,5.153077 -1.0455,-7.79772 3.7621,-6.379956 4.54244,-1.628578 5.94021,-7.1880498 10.75987,-5.7784899 4.991479,-1.1381917 7.731356,-4.3750573 10.978357,-3.0094818 6.536967,-0.4996521 10.208961,-7.8948084 15.831266,-9.0668881 0.713258,3.01286253 -1.222929,5.4308994 -0.930375,8.435279 0.322029,3.0617553 -7.274151,16.8291958 -1.240724,8.7149338 -1.606721,4.298725 -4.825942,8.613961 -8.665069,11.671393 -0.611819,0.848718 -0.323287,-0.166255 -0.377339,-0.472095 z M -156.72101,17.6078 c 4.26174,-2.30889 -5.3584,-1.754916 -6.62438,-5.691846 -1.28987,-0.884239 -5.4496,-4.7105039 -1.57192,-2.8385966 -6.36116,-7.2316679 -6.90421,-17.4277279 -11.55278,-25.4628204 -1.92558,-1.878128 5.55711,-2.349997 7.97588,-2.877207 4.95168,-0.03381 10.14971,0.426423 13.85562,3.083217 6.18482,-0.228289 9.20038,10.6546315 13.39783,9.9087685 4.0014,2.7277226 4.34282,11.1354188 2.89778,14.4771169 -0.3934,-5.2330297 -1.80116,-13.7627979 -6.20759,-13.0111779 -3.2874,-2.993276 -5.11925,-7.1283925 -9.48989,-8.9590155 -3.53949,-1.58411 -6.73959,-5.470323 -10.9946,-3.76909 -4.50496,-0.03327 -11.89394,0.604138 -6.62748,6.385072 3.09024,8.8185223 5.03624,19.3546281 13.75053,24.581444 4.09468,3.414132 8.12856,2.963293 13.91136,1.957896 -1.94768,1.88246 -8.9994,2.533268 -12.72036,2.216239 z"
           id="path32588"
           inkscape:export-filename="../../../../Desktop/code/angular/homework/plantify/src/assets/images/logo.svg"
           inkscape:export-xdpi="474.66342"
           inkscape:export-ydpi="474.66342" /><path
           style="fill:#e6b74c;stroke-width:1.09656"
           d="m -138.93005,160.65098 c -2.8995,-4.79428 -1.83,0.48225 -2.53053,-1.77461 1.73072,-4.07475 -7.63295,-10.0724 -6.07742,-8.02556 -2.66164,-0.12966 -10.15043,-4.23062 -12.16051,-5.29627 -3.31638,-0.46967 -8.311,-4.99876 -9.99105,-4.24498 -0.8688,-4.94048 -1.02147,-8.19861 2.9988,-7.68341 -1.16868,2.74214 2.35211,-0.31343 2.03997,-0.0186 -0.40467,2.02285 -1.87989,2.99648 3.12531,3.61799 4.33767,0.22768 14.42701,2.00396 14.43248,2.68438 -6.11437,-0.89029 -11.32313,-1.49032 -14.11546,-0.93221 4.05087,2.36063 15.6415,2.46114 16.36962,3.32152 -5.02284,0.39753 -9.99013,-1.16018 -14.99339,-1.49475 0.14574,0.24105 -3.09325,-3.13478 -3.59448,-1.61422 -4.88023,-3.37064 1.53905,3.0283 1.41078,0.84886 1.6816,3.39998 14.43805,5.6037 14.55417,6.74252 -6.13773,-1.52783 5.12335,2.37481 2.17495,0.43174 5.37335,1.67632 6.20716,4.35776 0.0424,1.191 -3.36598,-1.15374 -12.17813,-4.50042 -4.58024,-1.11792 3.31532,2.33182 15.27339,5.21866 4.6891,3.82379 -0.82713,0.32491 7.15601,3.46049 5.57271,7.54862 -0.16752,-0.22336 1.38089,2.8299 0.6327,1.99214 z m -11.83999,-5.65114 c -3.4837,-3.05985 -16.90446,-6.7378 -15.6509,-9.78435 4.84409,3.2644 15.19904,4.38892 16.88228,9.04494 l -0.73723,0.84047 z m 34.48712,-7.08925 c 2.09136,-4.36759 7.77305,-13.65954 -1.43531,-8.24783 3.56527,-6.51631 7.1138,-14.04804 12.1618,-19.10707 0.2382,5.70728 -2.43208,10.96049 -2.19708,16.6909 -1.18745,4.6296 -5.64162,7.18867 -8.52941,10.664 z m -9.0198,-34.57099 c 2.91476,-1.40489 7.92218,-1.77559 8.30715,-2.36406 5.48073,-1.18708 15.57156,-5.58455 18.070169,-5.2281 -5.757469,3.02862 -13.727039,4.87949 -19.102419,6.25366 -3.64068,0.55 -1.20438,1.07909 -7.2749,1.3385 z m -72.76955,-68.020969 c -2.23089,-2.797518 -9.78306,-4.683057 -7.2198,-8.323744 3.71016,3.220169 9.84529,5.356622 8.83629,9.314493 l -1.6165,-0.990748 z"
           id="path32587" /><path
           style="fill:#08b28a;stroke-width:1.09656"
           d="m -189.52142,167.69448 c -4.02771,-2.59809 0.88876,-8.30691 1.79543,-11.55064 0.34776,-3.87278 -0.62484,-14.29438 5.62907,-10.81794 0.52413,7.86592 3.65402,-3.035 2.79154,-7.02324 1.53567,-3.88969 -2.17633,-16.9291 1.53925,-6.68742 1.092,5.21175 3.61301,10.95144 6.52427,14.52995 -6.2229,2.04239 -8.10392,5.48953 -7.05975,12.50291 1.27056,5.94105 -2.761,5.25227 -2.60934,7.52226 0.0179,-4.59569 1.67608,-11.65641 1.34056,-15.96261 -3.76488,5.0664 -1.71744,17.6161 -9.95103,17.48673 z m 10.52885,-47.30296 c -2.27261,-0.86834 4.1638,-5.70855 0.7049,-8.31592 -5.0819,-7.97982 -10.21282,4.25041 -12.63008,4.67559 -4.93021,-6.52827 -2.81727,-12.11296 -1.72234,-20.143158 2.44722,-6.91959 6.89405,-3.211576 3.8954,1.636845 -0.61376,2.785063 -0.14965,9.005603 1.80746,7.305493 3.4567,7.26667 2.23532,-6.519143 0.78716,-3.10244 1.42802,-6.514332 6.47816,-12.263828 12.34437,-15.310781 3.15392,-5.660939 4.50592,0.744129 8.20109,2.218449 0.29214,5.774118 5.93468,7.297821 10.66666,7.542011 3.77265,-0.22158 18.21815,1.790805 7.31948,-0.485443 -6.86255,-2.02226 8.74984,-1.255716 10.10117,2.149153 3.52721,1.002686 0.0127,-5.40095 -3.95158,-4.681244 -0.6054,-2.068873 5.84566,-6.924351 6.8194,-10.791458 1.65638,-2.488563 5.14392,-11.854581 0.66633,-4.530734 -4.00305,0.05257 12.41024,-11.905803 1.48947,-7.562833 -10.91125,3.880828 -21.55931,8.699634 -31.58462,14.438634 -7.34095,-3.560338 4.91435,-8.703193 8.38264,-10.398659 2.35059,-1.051135 6.20087,-2.632753 3.12569,0.187587 4.67081,-0.932419 9.2169,-3.03417 13.31928,-4.517008 3.19854,-0.662498 9.34501,-4.170495 1.08227,-1.992752 -6.72897,2.48984 -12.16144,2.320556 -18.71277,2.49095 -4.04863,3.722273 -7.37119,-0.391524 -11.37562,3.331417 -3.06715,6.4101 -5.38543,-8.31148 -10.59426,-8.298909 -5.55989,-3.815272 9.73264,-2.646902 1.42422,-5.357969 -6.95916,1.01779 -2.16945,-5.464151 0.10307,-10.388643 3.26541,-5.757549 10.28438,-11.534553 17.16457,-8.525124 3.57026,0.546238 8.12209,2.051551 1.38705,2.820715 -6.91603,2.079352 0.59382,2.803301 1.65426,2.634494 -3.50194,2.218659 -9.21627,2.301037 -12.44792,4.598108 -2.27691,1.257644 8.43472,0.153662 7.77206,1.734404 -3.04727,3.007174 -0.92354,7.667918 -0.48779,11.255126 2.58606,0.536827 15.07173,-3.466979 5.73535,-4.623786 -10.39102,2.821491 3.27169,-8.228852 6.0202,-10.569144 3.31731,-3.701005 12.04606,-4.318754 12.36264,-7.206518 -1.56277,6.786919 2.78221,7.125654 8.1767,6.957151 7.86869,2.331299 12.27214,9.686462 12.64014,17.646465 -2.93888,-7.587254 -8.95149,-14.596738 -17.76995,-14.363028 -10.66579,-1.387958 4.89573,4.43769 6.4585,7.913201 5.82887,4.671733 5.47195,13.089875 5.77901,19.896128 -0.23066,3.43169 0.0614,9.823557 -2.69,11.345146 -0.89782,2.16507 -1.77936,-4.634835 -1.66791,1.717316 -0.0594,11.049818 -3.87873,-3.739838 -6.43843,-6.804099 2.40246,6.935937 1.16171,13.999727 -2.00439,20.793317 -1.65064,3.95585 -7.20406,18.82718 -6.50278,6.9674 -0.2957,-4.56777 -1.12733,-8.58609 -0.2736,-13.2097 -1.91093,-9.515992 -1.2626,10.64893 -5.64766,1.24687 -1.51325,-5.442661 -8.23106,-2.29996 -13.3418,0.43711 -6.01279,3.23282 -6.91411,11.31289 -11.72638,15.00937 -2.16961,0.50934 -3.24869,3.0334 -5.82065,2.2309 z m -3.02779,-13.82505 c -0.24506,-3.52768 -0.47924,-5.16929 2.26487,-3.42642 -3.76178,-8.49581 8.30278,3.82592 4.6895,-4.922807 4.30149,2.550577 0.90375,-2.934832 1.28484,-3.261637 -1.25984,-4.375675 -3.68713,-5.922583 -7.04353,-0.384561 -3.08388,3.103581 -4.31282,9.189865 -2.08705,12.158975 l 0.58704,0.30923 0.30433,-0.47252 z m 47.15854,-39.668866 c 9.4612,-1.613944 -14.7868,-9.563057 -3.58918,-3.169734 5.88448,2.737394 -3.83412,1.392466 -4.41268,2.650785 2.46917,1.013274 5.40256,0.880958 8.00186,0.518949 z m 16.15566,32.374872 c -0.85065,-3.431932 -0.18752,-3.63077 -1.18909,-6.912963 0.45869,-5.877123 -0.50037,-10.775258 -2.9125,-5.3313 1.35122,-5.776 2.47157,-11.567466 2.1995,-17.542973 4.07323,0.80093 1.02712,10.033769 2.75491,13.786076 0.62352,5.164138 0.98886,11.593397 -0.85282,16.00116 z M -178.9223,79.99011 c -0.79944,-5.617802 -10.97346,-9.249932 -9.60997,-14.059168 2.90104,1.618771 5.60186,-2.006542 7.74843,1.70056 3.21597,2.974346 6.02329,8.716259 6.1951,12.168481 -1.67135,2.490222 -2.31231,-6.336146 -3.70182,0.679956 l -0.63176,-0.489895 z m 77.37383,-16.343618 c -0.41239,-1.143189 0.24025,-5.350124 1.53971,-6.567842 6.881546,-5.905347 1.257809,4.553995 -0.95585,6.740113 l -0.46411,0.139814 z m 6.872281,-1.814132 c 1.168403,-3.720624 3.948937,-10.233421 7.293987,-13.870726 -2.279261,1.510054 2.192405,-0.06361 -0.494687,2.430432 -0.667133,0.620547 0.986712,1.907084 -1.63422,3.657077 -0.605396,1.521286 0.539154,3.471558 -0.538683,4.706827 -1.72091,2.326483 -1.362114,2.522841 -4.626397,3.07639 z M -133.36857,48.432258 c -0.47549,-2.246595 -2.71358,-10.140429 -1.1031,-9.148786 -1.51101,-4.681382 -1.90253,-16.90399 1.59144,-16.21679 2.54448,-3.211883 1.62234,0.186752 0.23079,0.94606 -3.94371,4.236546 5.19767,-0.535574 5.25414,-0.565116 1.30401,2.87119 -8.29546,3.977221 -4.35819,9.20411 0.33963,4.621799 0.62686,9.664657 0.0487,14.140185 -0.18594,0.403306 -1.03371,2.634939 -1.66375,1.640337 z m 23.99606,-6.491336 c -4.24523,-0.670711 -7.90356,-2.886275 -1.25248,-2.812395 -1.4399,0.293369 -9.87883,-1.063128 -5.76261,-1.432422 3.30858,-0.242899 4.51943,-2.526894 0.68277,-3.971004 3.20033,-1.863594 17.638409,4.679381 11.94223,0.746597 5.480569,-1.892651 -7.83105,-4.566991 -11.23547,-4.316427 6.65783,-4.796419 11.93101,-11.497603 20.049716,-14.16098 4.443272,-1.051935 14.191519,-10.10031 12.239128,-10.4821538 -2.92161,2.5017024 -10.232194,7.3579268 -11.858098,7.0333438 0.07779,-3.9123925 -6.680396,5.071371 -9.658176,4.998681 -3.46794,3.520992 -0.85546,-9.5421246 3.59429,-6.801877 0.944859,-0.716163 3.819759,-1.5687765 4.271519,-1.6247083 2.775193,-2.3425563 6.046296,0.5454576 10.384395,-3.3505229 3.710457,-1.6610923 12.94831,-11.1279403 9.152329,-1.1287031 0.199208,7.1347313 -6.898441,8.2044413 -9.642875,14.7593133 -1.624548,3.537622 -13.810958,10.419285 -5.397052,3.262652 3.459854,-7.632617 -1.154027,-0.198759 -3.085533,0.751869 1.191566,-1.237437 -12.681173,5.520433 -3.282944,5.618514 5.388174,2.316596 9.138814,-4.614756 13.298392,-6.911572 0.478614,-3.454872 8.502893,-13.190701 3.331086,-4.153455 -2.065496,4.724017 -3.770171,7.956083 -7.15667,11.9687 -5.421765,6.505545 -13.979057,11.408723 -22.672167,9.723866 1.04978,1.55506 5.86159,1.795754 8.49933,1.111822 2.951359,0.477757 6.379339,-4.159464 8.331343,-2.135797 7.16639,4.140832 -7.910313,3.524469 -11.518173,3.721013 -1.11572,0.09886 -2.17533,-0.171385 -3.25428,-0.414354 z m -6.04257,-15.528546 c -0.71793,-2.345538 -1.77041,-5.504735 0.70153,-6.920112 -3.1973,2.098041 2.39141,-4.874196 2.30525,-2.856644 3.33663,-3.577554 9.45876,-7.9812781 3.92138,-1.407837 -1.28039,1.111835 -0.3421,1.940528 -2.43833,3.413553 -0.96082,4.770651 -1.14229,3.840774 -4.09615,7.633068 0.53512,0.246327 -0.47242,0.751635 -0.39368,0.137972 z m -39.44387,-7.531679 c -8.06273,-3.107 5.91734,0.396234 8.24874,-2.295226 3.79172,-3.338045 4.23821,2.260324 0.5367,1.688278 -2.87452,0.508297 -5.87223,1.098642 -8.78544,0.606948 z m 1.12319,-3.436577 c -6.59663,-1.796231 -11.07305,-7.9426728 -13.69914,-14.0603252 -2.25529,-5.7173181 -3.3147,-11.8257098 -6.33216,-17.2126358 4.34857,-1.330013 10.1235,-3.322864 14.5006,-1.066578 3.29494,2.995548 9.13245,3.429013 10.5907,8.1211245 5.55689,3.118401 0.87287,1.648903 1.75013,5.0983913 3.06602,10.5431357 -9.81779,-7.5345758 -12.92739,-6.5142518 -0.9308,-1.244454 -11.9821,-5.871834 -4.86033,-0.552142 4.42139,4.1224315 14.98865,11.15524373 14.53943,14.1888558 -4.20955,-2.78713677 -7.77529,-3.30156407 -1.87196,1.3906296 7.08634,4.3055728 -1.60446,3.94863 -4.42498,7.2386506 2.14116,-0.324887 10.28466,-0.71128 7.77709,0.466696 -1.34351,1.427565 -3.53359,1.637759 -5.04199,2.901585 z m 14.4827,-5.4559714 c -1.76313,-2.4681834 -3.70477,-6.5548236 -4.47659,-9.99324637 1.48581,-0.7927409 -2.44049,-5.66211973 0.98929,-3.32150783 0.16108,-2.0658959 3.26244,2.60066803 2.82951,2.2432832 0.32702,2.3109412 0.46935,3.3303714 0.73659,3.0076609 -0.0896,3.8923585 -0.0891,1.6540056 0.28656,5.828683 -0.45098,-0.017216 2.41414,-0.1082406 0.32554,2.1237241 l -0.69097,0.1114853 z m -37.01787,-27.2106806 c -0.97333,-2.376434 -10.90939,-7.583915 -1.75626,-5.316126 2.57728,2.129229 11.73185,3.048361 11.19444,3.257547 -3.41433,-0.503061 -6.31762,1.206236 -9.43818,2.058579 z"
           id="path32585" /><path
           style="fill:#e82f25;stroke-width:1.09656"
           d="m -139.47301,158.56694 c -1.7679,-2.9992 0.87072,-6.87869 -0.72064,-9.4577 -3.3085,-0.45993 4.18935,-0.94112 -0.71311,-1.86354 -6.49244,0.70686 -12.23354,-3.54746 -18.27221,-5.2008 1.0085,-2.84556 7.18745,1.47854 10.1898,0.21243 -1.05062,2.01932 3.2965,-0.31837 5.62477,0.28917 -1.54842,-2.18698 -12.29728,-0.012 -12.9244,-3.24779 0.72286,-1.15442 19.1512,2.37111 8.00326,-0.11536 -4.55945,0.0924 -12.13262,-4.57198 -11.17991,-3.07145 -3.75345,-0.9145 -2.86685,-1.17916 -1.12871,-1.33289 -2.39654,-3.67605 -7.51804,-0.31914 -4.61599,-5.33915 -0.91193,-2.60727 2.18358,-1.72411 0.99415,-0.23494 3.35744,-2.05807 -3.25228,3.17792 1.08807,1.45058 1.1189,2.91735 15.74986,7.36072 9.28338,4.07355 -5.07777,-1.62234 -10.48976,-4.65099 -8.16493,-6.31523 -3.26462,-2.79736 5.44329,-4.97621 1.75832,-4.55424 -0.69487,-5.55808 4.81244,-1.37881 7.85722,-1.7592 -1.55909,3.89822 6.84169,-1.59316 4.78353,4.53353 0.39989,5.14582 2.53223,0.73101 6.96362,3.98211 5.73278,2.35773 -8.98689,-6.16787 -1.26702,-2.96696 4.224,2.55777 8.44989,4.41759 6.60432,9.8805 0.87561,7.32362 -1.03626,14.59266 -1.97669,21.81493 -1.2082,-5.61935 1.38011,-11.12989 1.40434,-16.80473 1.10206,-4.63153 -1.40195,-7.94362 -1.54554,-1.42818 -0.0229,6.477 -2.54266,12.78748 -1.15725,19.23382 l -0.88841,-1.77844 z m 3.5912,1.227 c 1.96218,-9.29494 2.78074,-18.81001 3.04823,-28.30151 5.05278,-0.673 3.05439,0.89173 0.83156,1.41666 4.2157,0.11572 4.67513,-1.4137 4.41823,-1.7196 5.76877,0.38389 8.9288,-2.2165 15.28503,-3.73493 -3.86918,1.99788 -4.74882,11.75965 -9.20943,4.98562 -0.2978,3.63831 -0.65902,3.28514 2.25416,3.14468 1.51488,2.67814 -7.74813,11.64174 0.74585,6.68855 8.01287,-5.80676 0.7505,5.03649 -0.4051,8.35665 -1.88037,1.99783 -4.72881,3.5278 -7.28445,4.01893 -4.0316,1.49785 -6.23604,0.94319 -4.17739,-3.93447 -2.38091,2.34629 -3.58436,7.44502 -5.50669,9.07942 z m 17.20076,-7.32257 c 5.31801,-4.70644 11.83481,-10.02429 13.28161,-17.26861 -2.47368,-4.5937 7.822059,-6.20302 1.85873,-9.38271 -4.11692,2.97328 9.165707,-9.3501 5.354929,-0.36545 -0.19119,5.33819 -2.305889,11.98026 -5.293509,13.30778 7.180419,1.70654 -5.05908,8.43803 -8.77542,10.12717 -2.18528,1.05372 -4.12416,2.8181 -6.42634,3.58182 z m -12.85521,-24.91077 c -5.3428,-3.38682 -10.2249,-6.70756 -3.37162,-11.52016 3.09471,-3.34644 -1.50246,7.02787 2.22724,3.91696 -2.2157,2.86137 -1.6244,6.83348 0.46409,1.05358 3.88315,-2.55742 5.48009,-2.0281 1.77798,1.64913 5.16672,-4.49418 12.1901,-4.86423 17.96714,-8.54118 6.16287,-1.30922 17.363711,-5.8637 20.902131,-3.67686 -0.669278,1.88955 0.561077,5.19631 -3.891442,6.37359 -4.5355,2.84612 -9.078929,0.48302 -13.582589,4.26677 -7.52827,2.10136 -14.86422,4.80191 -22.49293,6.47817 z m -17.30055,-9.18822 c -3.87881,-2.69289 -14.61567,-3.31322 -5.47006,-6.39632 1.09896,2.27196 4.3051,-0.34738 2.38941,3.93856 1.68162,-7.56564 3.09795,4.35644 5.5015,-2.32629 0.32878,1.24826 0.86616,7.8751 -2.42085,4.78405 z m 15.39806,-1.07028 c 3.04682,-4.54513 14.10893,-2.47806 19.6444,-6.23888 6.82148,0.27815 13.982609,-8.10947 19.767386,-4.33431 5.776959,1.92898 -7.246996,1.72466 -8.649496,3.73612 -9.91832,1.89988 -19.42279,5.46877 -29.35145,7.27557 -0.36044,0.12486 -2.2106,1.40338 -1.41084,-0.4385 z m 38.188632,-13.19891 c -2.982803,-3.52915 -16.655592,-4.599811 -15.159202,-8.366654 5.96839,2.36365 12.609319,3.741594 18.237039,6.790024 2.891761,2.0476 -1.209156,-0.0622 -3.077837,1.57663 z M -159.56323,91.914539 c 0.23999,-1.824895 4.48719,-3.192243 0.70833,-4.026378 3.47844,-4.584591 10.99606,-6.307316 16.20662,-9.107911 4.09971,-0.07194 -3.68025,17.315583 -1.99186,5.849807 -1.28437,-9.544986 0.33403,3.893738 -1.76138,5.519148 -3.89981,2.631168 -8.52613,1.878762 -12.93612,2.168369 z m -24.54602,-4.401494 c -4.71812,-0.643144 -7.58707,-4.157202 -5.89386,-8.851513 -0.31483,-4.281847 3.71062,-6.41789 0.83845,-0.9928 -1.53999,5.321285 1.44867,7.845729 0.92005,0.853365 -0.0355,-9.99961 8.15082,4.584902 6.96587,8.375618 -0.87018,0.436993 -1.83532,0.789093 -2.83051,0.61533 z"
           id="path32584" /><path
           style="fill:#069672;stroke-width:1.09656"
           d="m -144.6463,167.87973 c 1.54668,-10.05645 -6.64489,0.0638 -3.79439,-4.29356 1.22625,-3.22318 -2.60865,-8.44552 1.3155,-9.69175 2.81328,3.63961 3.57299,8.67804 3.514,13.24309 -0.33142,0.26651 -0.54038,0.70476 -1.03511,0.74222 z m -65.60259,-12.04265 c -2.99629,-4.01394 -2.08266,-2.0891 0.0438,-4.53692 5.60629,-1.90012 5.26503,5.13227 -0.0438,4.53692 z m 32.34497,-35.29152 c 3.77267,-0.77672 8.721,-4.83711 9.85693,-9.97395 1.002,-3.63487 9.93379,-9.90381 8.70098,-8.35762 -4.82322,2.31257 -7.72944,6.87699 -9.22209,11.76466 0.82308,1.0976 -2.47449,6.73545 -2.29007,4.1391 -1.04215,1.85953 -4.88448,1.96674 -7.04575,2.42781 z m 1.21843,-19.25907 c -4.60612,-2.342494 -2.32256,0.27474 -5.58548,-2.503906 -2.7798,5.706116 -0.52735,-3.982042 2.15465,-5.140076 1.22896,-4.050743 6.80819,-3.124264 4.407,-0.721524 1.38509,-3.582141 -6.02456,3.022922 -3.45713,5.571954 -0.47363,1.802812 2.21378,0.597633 3.57183,3.300312 l -1.09084,-0.50681 z m 86.037327,-65.078103 c 0.860436,-1.887606 4.513139,-7.030104 4.058735,-3.406171 2.56871,1.339176 8.648245,-9.233675 3.518354,-5.634982 0.58407,-1.700128 7.57072,-4.547606 3.48619,-2.291504 -0.131732,1.348113 -6.138388,12.076675 -11.063279,11.332657 z M -138.56715,23.73792 c 1.92529,-5.624388 -7.37847,-5.381849 -4.93525,-8.128628 3.35526,-3.722256 -7.32914,2.85806 -10.27349,0.276096 0.0811,-1.607983 3.32981,0.458114 6.1366,-1.569627 2.89946,-1.449509 2.47515,-0.107396 5.98941,-2.849027 2.69152,-0.453733 0.26722,9.378833 3.9524,3.547699 4.14826,-0.559076 -2.36014,10.71661 0.61537,4.291802 2.14654,-1.742032 -3.0544,-1.913054 -2.29841,0.122661 1.34021,2.083322 -0.28816,-0.154763 0.81337,4.309024 z m 5.8092,-1.044247 c -0.94536,-4.20516 9.42478,-12.487757 10.07328,-9.361367 -1.95054,2.323102 -6.24712,5.904476 -7.97566,8.348626 -1.67214,-0.856847 -2.27362,1.786107 -2.09762,1.012741 z"
           id="path32583" /><path
           style="fill:#076851;stroke-width:1.09656"
           d="m -187.08468,169.72398 c -4.23808,-2.91361 2.02633,-0.11562 3.40519,-3.28418 2.08029,-4.57133 2.11418,-13.56178 4.10479,-15.45695 -0.82036,5.26918 -0.61029,10.62345 -2.09854,15.79963 5.81877,-3.33117 3.28283,-10.4608 3.95447,-15.93617 1.07413,-3.26517 -0.14993,7.15592 0.15502,9.61664 0.82012,5.01771 -2.78378,10.00137 -8.24712,9.45916 -0.41973,-0.0826 -0.99819,0.37401 -1.27381,-0.19813 z m -19.53065,-16.98827 c 2.42958,-3.28583 -7.58665,0.41536 -1.50003,-3.45758 4.52245,-0.14633 9.98074,-9.28638 9.92862,-8.4754 -2.47392,7.58179 5.78011,-0.67415 2.54463,-3.40579 3.07047,-0.6172 -2.49574,8.17024 -1.94959,7.9123 1.57943,3.25397 -3.63045,3.78985 -5.93644,3.63036 -2.415,-0.77866 -3.18437,5.97807 -3.08719,3.79611 z m 30.31185,-1.0989 c -0.27146,-5.03278 0.28213,-0.94963 0.4981,0.4458 3.99733,-3.60484 6.97451,-6.8408 1.29177,-10.60872 -3.91607,-4.75787 -0.81433,-10.85053 -3.61762,-12.42669 3.47276,8.45824 -5.01403,-9.18729 -1.97154,1.44683 0.31253,4.80224 2.86922,16.83894 -1.93813,17.39976 0.85652,-2.18472 -0.86669,-9.61679 0.68592,-6.45343 4.76399,-2.6404 -0.74977,-11.06132 0.64659,-15.25954 -0.94677,-3.71982 1.43059,-3.40312 0.54749,-6.49333 0.99071,-2.12859 0.34686,2.49385 3.96967,0.72283 5.52201,-3.37654 5.53609,0.50638 7.43204,-4.85575 0.88238,-2.36789 1.38502,-6.50218 4.14817,-9.13696 1.97557,-4.16588 14.49814,-8.436432 14.44414,-5.60327 5.0776,6.02191 -1.16114,-1.219268 -2.11204,-0.49809 -7.22962,0.9415 -13.26173,6.43724 -15.42599,13.51525 -0.73495,7.96492 -5.05255,7.85195 -11.29817,6.82975 -1.31928,2.54248 0.51159,4.95991 2.65112,8.51407 1.67862,3.76368 3.49238,12.8159 1.0851,9.19069 0.40268,4.94344 8.99443,7.83049 1.57514,11.74274 -0.3355,0.14644 -3.429,4.33703 -2.61176,1.52806 z m 55.88058,-48.077 c 4.38792,-6.465633 3.97043,-15.221995 2.06606,-22.518634 0.97434,-3.513475 0.0567,-13.619252 -2.6025,-11.926386 -0.15255,4.085824 0.49456,9.094392 -1.25215,12.501939 0.45341,-6.456129 -0.32967,-14.009129 -4.50326,-19.096728 -2.9427,-3.075476 -5.89103,-6.097399 -9.77948,-7.962713 -6.13881,-3.962692 9.53743,-0.766463 11.11837,2.082317 4.60101,2.09552 6.96941,9.606826 8.54997,12.150514 -0.95842,-8.250341 -4.67239,-19.50964 -14.56547,-19.675689 -0.0937,-2.786006 8.92913,2.353588 11.65695,4.831389 6.22068,6.164559 6.786,15.503936 6.3877,23.737364 1.63405,-1.160815 -4.27796,3.796055 1.54469,2.320473 4.09089,-2.932469 9.75764,-6.555899 9.87787,-10.611486 0.4579,-2.088085 0.31785,-7.636787 -0.0579,-7.188417 1.51457,4.593971 4.943199,0.492264 3.264919,-2.258317 2.67716,-4.280511 7.49255,-9.599144 2.39388,-2.858364 -4.328249,2.582838 0.906701,6.335816 -4.247869,8.694003 4.377699,5.030853 -8.02484,11.844327 -11.88809,15.280059 -3.58193,4.367346 -2.46761,10.605381 -4.49861,16.022067 -0.66096,1.83696 -1.71337,6.801549 -3.46511,6.476609 z m 1.12358,-36.415033 c -0.6443,-4.147092 -7.21217,-13.165013 -8.8789,-11.226448 2.69412,3.665772 5.54748,10.422016 8.8789,11.226448 z m -58.5392,16.439352 c -0.78703,-2.21691 1.53438,-9.067955 1.18762,-3.17575 4.79239,2.110114 0.98921,-9.505985 4.20528,-3.47499 5.06738,4.618833 -2.46189,6.398346 -5.3929,6.65074 z m 8.06003,-5.914255 c 1.88209,-7.284606 7.92643,-2.515711 12.02315,-5.833491 6.10922,2.232357 -4.25811,-0.476013 -7.08475,3.545518 -1.31306,-0.08507 -4.37798,4.10196 -4.9384,2.287973 z m 7.81832,-12.690051 c -2.99258,-4.092601 0.18731,-10.189633 -0.19062,-12.135398 -4.35794,-0.199367 -11.20034,-0.148962 -2.79109,-2.062337 -2.02261,0.679941 1.22087,2.328011 5.19105,2.114407 -5.11401,1.568458 -0.52965,7.962811 -1.0613,6.912214 -0.047,1.368877 13.46748,1.080311 3.82483,3.426932 -1.61076,0.03964 -3.52766,2.532629 -4.97287,1.744182 z m 57.75824,-29.658002 c -1.71949,-4.06411 -7.53248,-4.40293 -12.39656,-4.342657 -2.40263,-0.31134 -1.68454,-8.19046 -0.85957,-5.835382 0.93341,-3.499572 1.86455,-5.868221 1.14325,-1.73358 0.36961,2.126116 -2.30105,11.127945 1.13275,3.914027 3.04728,-2.315213 7.53848,-13.833052 7.60347,-12.447005 -1.58214,3.501989 -1.1826,10.198849 -5.87601,10.284972 -3.57444,4.737296 -3.3767,5.429607 1.60784,5.364494 3.1398,0.199809 12.899489,2.509573 7.51582,4.202624 1.27988,0.177472 2.59361,1.56512 0.12901,0.592507 z m 6.042039,-6.320078 c 0.56907,1.259684 8.626271,-3.053856 7.019952,-4.43012 -3.628446,2.610666 -10.715311,3.895094 -2.641148,1.181971 6.010367,-1.576366 12.719414,-15.722344 14.719424,-13.915962 -4.008881,6.960947 -9.840258,12.876878 -15.865065,17.488723 -1.084903,-0.02135 -2.179223,0.06836 -3.233163,-0.324612 z M -156.29929,11.868984 c 3.47,-2.9498151 11.91112,-2.9885924 4.19301,-7.2551151 -7.59864,-6.5059357 3.12176,0.1187944 4.23091,0.2221928 -4.68111,-6.2537214 -11.97256,-12.6256232 -17.23684,-16.3941627 8.24163,4.5767225 14.08315,12.16098393 19.86797,19.3746775 -4.73285,1.0457834 -12.60525,4.9373965 -3.77996,3.0169645 3.3352,0.164472 8.24885,-0.05697 3.77996,1.077348 3.00369,-1.718088 -9.68108,0.693524 -9.69151,-0.484135 -0.35426,-0.520738 -1.19902,1.355919 -1.36354,0.44223 z"
           id="path32582" /><path
           style="fill:#040907;stroke-width:1.09656"
           d="m -187.48408,171.51218 c -6.018,-0.84449 -9.92749,-8.47429 -5.88922,-13.3416 5.11373,-2.97507 2.24638,-8.04109 3.38804,-12.18895 2.50254,-3.96577 6.59099,-7.10796 6.20095,-12.47094 1.14887,-4.44549 -1.7284,-10.50147 -3.00466,-3.20085 0.54325,2.80807 0.0832,8.77244 -3.61495,4.70943 -1.88231,-4.39799 -4.7303,-8.85446 -4.26533,-13.81038 -2.01476,-1.18421 0.49078,-6.12023 -1.4152,-8.5591 -2.28775,-6.56133 -1.89433,-14.562686 0.2974,-20.805421 -1.64555,-3.504698 4.06444,-4.711597 2.44471,-7.262532 -1.6611,-4.256935 1.49441,-8.628562 1.71939,-12.604567 -1.97509,-4.905205 -0.47939,-10.214206 5.31096,-11.677711 1.14304,-10.527674 7.40811,-21.491188 18.34221,-24.01498 7.47965,-1.988731 15.33921,0.849915 20.94562,5.896363 5.92023,-1.004959 11.63484,-2.328986 7.86091,-9.369346 -2.27994,-4.404125 0.22104,-15.717187 -7.66378,-11.870378 -5.46365,1.207823 -11.80553,1.028162 -16.44767,-2.316866 2.72267,-4.693428 -9.18893,-6.992517 -10.19594,-11.7972356 4.21787,-3.3028066 2.89948,2.6804784 7.75453,3.6973476 2.90061,2.252901 6.07223,5.437876 9.15011,6.105775 -6.06255,-1.325925 0.14605,3.465726 3.98815,2.607235 3.90971,0.826816 11.79908,-4.253233 13.11009,1.947296 1.10773,6.416571 3.95621,12.680374 4.32203,19.136918 -0.95272,2.220168 3.74729,8.883881 0.0754,8.738713 -4.83655,-0.350562 -0.1518,-10.775764 -7.88737,-5.645762 -7.7284,3.045189 -15.79588,8.437427 -18.37282,16.643911 -4.68894,-4.628819 6.15989,-8.606355 -2.81196,-7.68213 -6.66859,-1.61877 14.11595,-3.50605 7.52226,-5.548708 -10.78065,1.464228 8.27791,-4.209028 -0.54435,-4.324098 -5.06593,-1.201274 -9.51112,-2.198593 -2.39734,-1.799684 9.36446,1.376266 -0.0957,-4.01163 -4.06505,-2.892773 -10.3516,0.973096 -17.92498,10.612839 -19.28839,20.528917 -3.49776,4.352273 7.44495,6.743172 -0.64758,5.937433 -6.60006,-2.195632 -8.79386,5.008131 -3.26746,6.331929 4.49903,3.384492 7.49444,7.987717 9.10021,13.353424 4.79888,-0.654968 9.86504,-3.920467 4.4261,-8.243373 -1.44008,-3.258756 -8.45189,-12.595193 -1.15678,-5.441362 3.27849,3.545379 4.35174,11.364559 9.62125,5.103748 2.45262,-2.266541 11.81384,-4.173038 4.35461,-0.595374 -5.25627,0.808071 -11.74951,10.859676 -3.02499,10.466457 11.33263,-5.598087 22.61153,-11.877075 34.87672,-15.10205 -5.38403,4.474392 -7.29364,11.814888 -11.30606,17.656914 -4.45446,4.598767 -6.14845,7.114472 0.72384,6.710503 4.15719,1.997653 1.91426,4.566392 -1.80389,1.212567 -4.26367,-1.232524 -8.88813,-0.161928 -13.00466,-0.198214 -3.35711,-0.344009 -9.19463,1.368662 -10.56022,-3.804693 -0.087,-3.894639 -4.37998,-6.15023 -7.30626,-7.237925 -6.88036,1.904629 -11.98132,8.339879 -15.01673,14.559783 -1.22869,3.691309 1.07145,9.937409 -0.90058,2.755889 -0.86165,-4.093296 1.20906,-8.813854 -0.002,-10.805413 -4.1355,0.180631 -4.21416,-5.327255 -5.57274,1.58305 -1.52416,8.222423 -3.29059,18.939793 3.32508,25.068073 1.79468,-2.26461 2.478,-6.16858 5.76435,-7.62335 5.62921,-2.12575 9.20832,6.91882 3.76712,10.01377 1.39426,2.92964 -0.99588,3.01502 -0.44975,6.56786 -0.47936,4.26782 4.41221,12.91787 -0.84183,15.07794 1.53139,-4.18705 -0.48867,-19.62532 -0.6534,-7.34856 2.04713,6.86551 -6.55413,9.76352 -5.59038,15.71835 2.37512,5.32062 -4.16281,8.07566 -4.80811,12.33167 0.81353,6.51291 9.38919,10.35137 13.9484,4.64897 2.54677,-4.96119 0.90484,-10.78906 1.47747,-16.15345 2.04651,-5.05814 -0.0557,6.56015 3.75285,-0.77672 7.94577,-4.1771 -2.48373,-7.23085 -1.56876,-12.78773 2.63532,5.69818 0.0542,-7.39549 -1.72183,-9.44669 -1.80439,-2.12553 -4.13374,-7.1087 -1.02362,-6.97679 6.87709,1.55126 9.47092,-1.08827 10.88237,-8.42572 2.38796,-6.83226 9.05646,-12.2582 16.25358,-11.98277 -1.01976,0.46496 9.15413,7.1607 7.34905,8.89361 -2.70543,5.28075 -1.13029,11.2381 -1.58062,16.86257 6.46468,-9.60746 11.38131,-20.43691 13.62383,-31.812793 -1.00762,-3.521941 -2.71365,-7.983844 0.25346,-2.073038 3.12709,1.688182 1.19722,15.220751 4.47943,7.850471 0.39916,-1.723712 1.10456,-10.804468 2.04693,-6.054191 1.08803,1.808192 4.62254,-16.892494 4.06666,-5.015088 0.62402,4.941543 1.22882,9.909938 0.15924,14.867419 4.92768,-4.735226 3.91864,-13.399578 6.29236,-18.949638 0.97077,-7.014954 10.70117,-8.094797 13.38383,-14.58095 4.177989,-3.674919 -1.73568,-5.045852 3.276149,-8.691556 -2.487419,-2.985592 2.595823,-6.777797 4.863893,-8.772495 6.496001,-7.535771 -0.617364,3.69936 -2.364991,7.15064 -1.448972,3.929379 -5.424031,10.752455 1.701343,5.905197 5.464241,-4.757427 5.389685,-12.16533 9.1497,-17.781917 4.006103,-7.35501 -9.138812,1.43609 -11.43242,2.792528 -3.835895,-2.124254 -5.689434,-0.990949 -6.584174,4.132638 -1.7919,4.699039 2.857609,9.610467 -1.19375,13.245988 -2.50115,4.167702 -12.26795,14.405384 -9.91367,3.648631 -5.7e-4,-8.491621 -3.13031,-18.222678 -11.8025,-21.422867 -2.56928,-5.962913 -10.8782,2.410917 -6.09735,-5.634653 2.85251,-6.985018 -5.77219,-17.144051 4.23014,-18.538761 1.21053,-3.814581 7.13401,-7.894529 4.30348,-12.788181 3.38808,-6.7543253 -6.81493,2.399766 -8.26187,4.220098 -1.82073,3.639928 -7.72442,12.765835 -4.8374,2.980908 0.0219,-4.706814 -1.36732,-7.834372 -3.57014,-4.52235 0.19948,-4.419138 2.47921,-7.5004673 1.75737,-11.601081 1.77008,-5.58104317 -0.60235,-9.6719165 -4.27013,-15.597642 -1.41954,-1.586875 2.51569,8.8456903 -1.87862,3.6756565 -3.22602,-4.7505795 -8.15347,-12.6151745 -12.60952,-14.1623415 -8.29142,-3.127122 10.50928,5.887548 1.01701,3.064832 -5.26172,1.050893 -9.26622,-5.507163 -15.14809,-5.174949 -5.14311,-2.047281 -5.52864,1.783774 -0.38746,1.109582 3.92392,0.566491 10.37819,4.305876 2.24402,2.087565 -5.45921,-0.178995 -13.60132,-4.746338 -17.15752,-3.959706 9.00056,3.312442 11.1232,12.653393 14.17165,20.4630538 2.02071,6.4509551 -4.22096,-3.8717403 -4.78223,-5.7287373 -5.11231,-2.5446985 -3.07383,-7.5955755 -4.0776,-9.3908785 -1.89391,-1.994333 -14.94761,-8.029827 -6.75775,-7.476553 5.88045,3.338973 11.90995,-0.416836 17.51841,1.447624 6.16956,4.540116 11.72447,-0.930188 17.02405,4.388956 4.03321,1.143765 9.24171,12.7678705 9.21731,4.763145 4.07229,5.626779 9.95224,11.6249919 9.30801,19.1073816 5.66198,-3.35377967 -1.63853,7.8585534 -0.33937,11.2784624 -0.63151,8.650361 2.48502,0.185183 6.15728,-1.744351 3.39368,-1.863695 10.51712,-9.08699 8.66501,-1.04263 -1.59658,4.459303 -0.75689,8.490309 2.2398,2.361097 0.86404,-4.7908043 11.69105,-11.8090755 5.05122,-4.4065113 -0.40064,4.5946853 -5.02536,5.6537443 -5.22593,10.1980633 0.70958,3.471359 -6.25514,0.304357 -5.00781,3.909656 4.40739,-5.833198 3.87336,6.085895 5.85571,7.006491 4.32127,0.09051 10.92214,-0.06845 11.97482,3.9497 -4.19557,-1.605633 -8.68714,-1.283625 -13.04047,-1.945793 3.64935,2.82065 1.13138,1.987122 2.34758,4.851226 -7.94926,-1.506349 5.68263,6.382383 9.1319,4.752502 3.72329,0.451389 14.761964,-0.272185 13.875148,-2.417695 -5.003549,-0.819468 -0.429324,-6.164934 2.406097,-3.437107 6.103052,-0.709128 8.249527,-8.708061 12.258572,-12.791217 1.685003,-3.249145 -11.366473,8.527645 -5.979316,0.505555 2.15833,-3.432151 9.92996,-10.540167 8.552711,-12.613518 -4.594002,6.030901 -2.198859,-1.186435 0.732479,-4.1792686 2.295289,-3.6760396 -2.398852,0.5015078 0.09672,-2.7812197 0.495146,-4.00745677 5.303906,-18.9736247 -1.513643,-10.0540302 -5.184076,2.9068434 -10.364997,11.0854516 -15.425467,10.1844429 2.164409,-1.0008077 7.351772,-7.1642041 1.277942,-2.5797713 -1.644233,2.6094918 -16.344893,8.7357419 -9.996353,3.1018417 -2.2945,-3.1849177 -6.4356,5.8219742 -9.99658,6.8382702 -6.8768,4.873508 1.65583,-6.3266183 4.62552,-6.7469627 2.76849,-4.2907784 6.308959,-4.79219597 7.666649,-1.1968226 4.132569,0.3242776 12.665744,-11.8503152 11.747212,-3.2866342 4.576026,-4.5959637 9.471146,-9.551936 15.413851,-12.0840765 0.903016,5.3104415 -0.478927,10.55627783 -1.715168,15.646354 3.407963,1.8009353 -1.082394,6.930319 -1.832441,9.937053 -2.243724,3.137556 -7.746783,9.284254 -0.780333,4.885283 0.431327,6.284119 -5.608413,10.710091 -8.747793,15.526031 -3.686063,5.656642 -9.657263,9.474554 -17.073127,9.563348 -7.52781,2.466918 -14.80041,-3.562683 -21.63643,-2.444943 -1.62044,2.421048 7.09153,5.333093 8.25363,9.568886 4.36492,5.299025 4.43723,15.070301 5.14457,19.924938 1.9034,-2.999559 7.25486,-5.212575 4.9138,-9.240226 0.017,-4.15466 1.11137,-16.618315 7.085289,-14.02644 3.629306,2.760011 14.233708,-9.116672 15.442412,-3.461195 -4.995216,7.47006 -2.360491,19.379044 -12.551504,22.607438 -6.267847,2.095336 -8.114457,10.428575 -13.925987,13.456451 -4.26301,1.629904 -1.64263,9.210033 -2.2778,11.472334 0.65931,-3.076411 10.339659,-13.660137 6.25185,-6.12032 1.07119,1.259792 5.551209,4.195996 0.37958,7.4555 0.94062,4.723582 12.878483,2.581437 15.618379,8.261141 -0.454594,5.13187 1.044943,12.93074 -3.716379,16.11892 -5.277991,1.95567 -3.021095,9.87811 -5.164391,14.1963 -2.09392,7.67338 11.972033,3.67887 16.009659,7.84634 10.583305,6.44425 -8.686558,9.14811 -13.677851,11.13829 -13.111627,3.97778 -26.122247,8.33 -39.221977,12.31309 -3.76523,-0.28804 -8.63674,-2.60935 -6.94413,3.32318 -2.13468,5.84189 -11.65101,2.50276 -10.9242,-3.21322 -0.12843,-2.92753 0.51466,-6.60389 -2.90283,-7.82257 -5.45814,-1.69734 -12.05335,-9.82644 -16.71674,-4.33634 -4.60893,2.83437 -2.99843,8.19464 -3.44773,12.61469 -1.81558,5.2271 -7.05377,8.88476 -12.73762,7.27582 z m 43.61319,-3.80692 c 2.66235,-5.2288 -4.54768,-21.13014 -5.94833,-8.46517 -0.67314,3.349 -0.18284,8.99016 4.39612,8.78081 0.49957,-0.12641 1.25529,0.29394 1.55221,-0.31564 z m 5.60477,-6.63153 c -1.61955,-7.79114 0.47946,-17.46574 2.09333,-24.13377 1.58561,6.96117 -1.78876,13.86282 -1.43196,20.81138 1.04398,2.38328 2.18061,-12.06689 2.51902,-15.42757 -1.6517,-3.4322 2.14708,-9.34502 -1.71601,-11.21291 -2.70078,-3.56406 -11.66168,-6.04006 -4.38795,-1.7192 7.13409,4.72227 -6.51818,-2.97905 -5.41536,0.47416 -0.21242,-3.13201 -1.58548,-9.27761 -4.62852,-5.94928 -1.84965,-2.76902 -3.84001,-1.62434 -8.38089,-3.39145 0.0552,3.15982 -3.64793,7.39972 -2.42731,9.25988 -4.42105,0.80897 18.86023,8.38055 6.68008,5.43701 -3.30447,-2.86981 -12.31347,-4.11149 -7.74631,-6.72521 -1.98957,2.75478 -1.10428,-3.76636 -2.39833,0.76003 0.31602,2.40901 -1.96751,6.54213 -2.12014,1.47779 0.61978,-1.0322 -0.34421,-1.23369 0.28259,-3.85806 2.24659,-1.7623 -1.03948,-4.37413 -1.7206,2.03954 -1.32613,4.04756 -1.33498,3.27871 0.061,3.88688 -3.11517,2.08275 -1.16356,6.79384 -0.56631,9.42546 6.5273,0.78266 15.56399,7.42266 23.41836,9.68089 5.25893,0.33575 4.37283,12.32261 5.47952,6.53163 -0.94421,0.85687 3.28615,4.07609 2.40576,2.6328 z m 3.5283,-2.67774 c 1.43306,-3.92137 6.2476,-11.57424 3.36906,-2.98347 3.20701,-0.1675 6.28816,-0.67263 9.16968,-2.34913 5.15577,-2.03701 5.2239,-8.54299 7.86188,-12.69417 -2.93193,1.25494 -11.7503,6.50116 -6.27084,-0.37775 4.12293,-3.78943 -0.0831,-5.03345 -1.2764,-4.71368 6e-5,-6.74853 4.54952,4.2568 5.8735,-3.33114 2.84091,-3.94415 5.59242,-5.66652 -1.01927,-3.1231 -2.99445,2.45359 -9.42614,1.84571 -10.90441,2.57699 -0.93352,2.26631 -6.12376,1.51903 -1.88407,0.0513 -5.69886,-1.20774 -2.57742,6.76267 -3.44384,10.35634 -0.78513,6.08208 -1.54627,12.50384 -2.43773,18.28802 l 0.96245,-1.70027 z m -14.65929,-4.17291 c -2.05893,-4.16893 -12.93022,-7.40237 -18.35754,-9.09497 3.1905,4.11498 9.41699,5.30818 13.72555,8.2694 1.39797,0.0958 3.93707,3.55282 4.63199,0.82557 z m 32.20354,-2.39555 c 3.99406,-3.24381 18.890659,-8.36057 14.78792,-12.44055 -1.48831,-0.60401 -1.38451,-1.57278 2.05505,-2.84247 0.418759,-5.11472 6.60682,-19.32499 -2.83145,-11.99794 -4.51902,3.3757 5.236129,1.36239 -0.01,5.45453 -4.3966,2.23115 -0.35249,8.97985 -5.31518,12.01161 0.11896,1.73006 -13.07033,12.59038 -8.68626,9.81482 z m 1.97461,-4.64806 c 2.98211,-2.44363 8.21463,-7.16109 8.00247,-14.28371 0.15934,-3.35714 4.27232,-16.23847 -0.67603,-10.11006 -2.42984,4.78933 -9.94609,13.60314 -8.87248,16.71557 10.87177,-7.58987 -3.52526,12.99791 1.546,7.6782 z m -56.70148,-12.47126 c 0.11744,-4.99614 4.72595,-15.56875 -4.45938,-11.5339 -0.83566,4.32319 2.00092,10.28782 4.19379,12.76339 l 0.26556,-1.22949 z m -16.41385,-3.40909 c -4.08657,-7.39183 8.376,-6.57028 4.88709,-7.35572 -4.21019,1.31496 -2.34741,-4.45503 -5.78789,-4.49511 -8.88752,0.16239 -0.72252,10.30055 0.81685,14.3068 l 0.0641,-0.76092 0.0199,-1.69535 z m 59.16459,-4.32477 c 8.40393,-2.33501 17.0605,-4.39989 24.91811,-8.06287 4.06302,-0.30563 7.623319,-1.18769 11.807145,-3.25662 0.260929,-3.68505 1.3608,-3.94577 0.57399,-6.11409 -10.766815,1.153 -21.330955,4.21061 -30.836925,9.39799 -3.73951,-0.60535 -11.09239,6.85746 -4.90064,0.35482 -4.76268,-1.43912 -8.53501,10.40345 -5.27155,0.98967 2.2051,-2.30524 -4.36083,2.23807 -1.13261,-2.56217 3.2545,-6.98826 -11.80342,6.68987 -3.17597,8.05179 2.72458,1.2739 4.98806,2.99696 8.01845,1.20148 z m -33.08535,-3.64258 c 1.10015,-3.95066 -2.66474,-5.45499 1.14167,-6.57325 -4.11785,-0.82129 -5.10806,-5.21861 -5.35358,0.78238 -0.79304,2.24875 2.1899,8.35958 4.21191,5.79087 z m -19.30672,-2.01402 c -1.7782,-3.02569 4.17881,-9.76281 -1.76654,-9.01965 -0.9788,2.71284 -2.74682,10.39683 1.39638,10.361 0.90232,0.27987 0.20978,-0.94951 0.37016,-1.34135 z m 35.09663,-2.99381 c 1.73202,-6.70803 -1.11081,-2.60623 -2.35203,-3.17249 -1.42561,-6.22644 -4.3162,4.77454 -2.55404,-2.19673 -1.96909,-0.11317 -6.21727,-1.5048 -6.74221,1.93993 3.8285,-0.56284 9.21656,5.22236 11.64828,3.42929 z m 13.53359,-0.14481 c 8.68055,-2.24517 17.46172,-4.44871 26.14646,-6.86672 4.30529,-1.12586 11.805992,-2.61481 14.285954,-4.00131 -2.366342,-1.12788 -4.852855,-3.0533 -6.368375,-0.8908 -0.57143,-2.9147 -11.071159,3.34257 -15.547109,3.54229 -5.74509,3.14145 -14.5129,1.27683 -18.75776,6.16647 0.11742,-0.38734 -0.9507,2.97816 0.24083,2.05007 z m -28.46517,-3.52334 c 3.50757,-1.38878 3.46275,-5.39542 7.22253,-4.285 3.26344,-0.30886 2.62322,-7.40582 -0.32022,-7.45133 -3.85348,0.3689 -0.0325,10.59724 -5.79787,6.21704 0.7703,-7.96197 -3.47863,2.1582 -3.02362,3.25422 -1.94755,0.79593 -0.25469,3.98951 1.91918,2.26507 z m 14.89345,-4.55392 c 3.53387,-7.38968 -7.40105,-3.61142 -3.61355,1.09467 2.18323,0.47273 2.99403,2.56052 3.61355,-1.09467 z m 52.786482,-6.02721 c -0.18622,-1.86749 4.733038,0.24099 -0.0801,-2.58659 -5.812233,-1.23303 -12.029672,-5.545305 -17.454782,-5.279654 3.82004,3.071834 12.491779,6.204314 17.534882,7.866244 z M -104.67297,92.723949 c 6.579999,-3.286515 -1.57815,-6.718755 -3.09396,-1.032138 -3.67282,1.958701 2.53449,3.296176 3.09396,1.032138 z m -45.30988,-1.090658 c 6.79805,-0.245433 3.7235,-6.742935 4.82082,-11.060568 0.98554,2.539486 0.0194,13.501157 2.1905,4.928259 3.49819,-5.3777 1.27795,-8.995411 -4.18914,-4.889514 -3.89476,3.441187 -12.01974,3.733454 -12.44893,9.358903 -1.04972,3.538817 3.65234,1.990731 6.00423,2.162798 1.21542,-0.142919 2.53895,0.213417 3.62252,-0.499878 z m -31.84022,-4.480728 c 1.33415,-3.876154 -1.69663,-9.892588 -5.37844,-12.408665 -3.8465,-1.362204 -3.74241,7.904336 -2.12422,10.430487 2.36641,0.949474 4.8733,3.235442 7.50266,1.978178 z m 55.94112,-51.858743 c 3.65253,-0.626277 7.43109,-13.576023 2.17909,-9.934163 -3.54329,0.913149 -9.04272,10.749444 -2.17909,9.934163 z m -84.02844,122.89838 c -7.77985,-2.43143 -1.58844,-13.1855 4.17009,-13.72793 5.14301,0.34321 3.61616,-8.34602 8.7004,-8.42464 9.30549,0.52369 2.78391,12.95799 -2.4017,15.02861 -5.19155,-1.78016 -4.1595,2.97857 -5.45538,6.16775 -1.20497,1.50916 -3.37236,1.23672 -5.01341,0.95621 z m 2.93978,-2.43668 c -1.0453,-7.15825 5.0923,-6.23006 9.1131,-8.12039 0.93078,-3.22139 -0.96882,-2.78849 2.26815,-5.64216 3.99303,-8.07089 -6.04855,-4.03117 -5.56515,1.18087 -4.13743,4.08036 -10.30744,4.01478 -11.1432,10.78783 1.00249,2.18277 3.46991,3.13705 5.3271,1.79385 z M -89.496821,91.651137 c -1.340435,-2.336453 8.65579,-6.894121 1.529984,-8.246205 5.76131,-5.573673 13.275548,-8.903822 20.219976,-12.74374 3.077262,2.885291 -15.207796,10.922566 -5.968205,11.575753 0.967234,4.025262 -11.147494,8.714805 -15.450954,9.637119 z m 7.068007,-3.693859 c 4.387219,-1.677804 10.432786,-6.489392 2.369933,-4.899593 -4.157843,0.164416 13.974729,-11.816273 3.754174,-6.266244 -3.566848,2.544972 -11.889262,4.51931 -6.450703,8.583658 -1.613298,3.343708 -6.7628,6.366219 0.326596,2.582179 z M -119.90187,67.172777 c -3.0285,-2.355471 -9.62495,-11.946411 -7.22051,-11.589945 3.77012,2.22971 8.03662,9.784865 7.22051,11.589945 z M -196.57906,48.64999 c -9.91712,-7.321063 -19.46733,-15.313824 -27.65146,-24.524249 6.15957,1.265018 13.71322,6.09452 20.3921,8.684309 6.68455,3.488168 8.23842,7.540134 8.86223,13.154871 0.93656,1.267223 0.68845,4.347943 -1.60287,2.685069 z m 0.48529,-2.325566 c -1.01694,-4.221473 -0.33271,-2.96617 -3.71055,-6.329247 -4.25739,-3.156449 -0.94371,-0.482764 -0.18534,-1.566175 -2.40818,-2.961845 -6.55124,-5.356343 -10.4028,-7.039325 -4.13484,-2.454609 -9.40317,-4.036467 -3.26156,1.131676 5.34189,4.5565 9.96769,9.577763 15.96636,13.185176 l 1.19508,0.753194 0.3987,-0.135299 z m 3.14704,-12.754026 c -10.4688,-7.048985 -20.85424,-14.268099 -30.89845,-21.889801 7.89478,-1.8421989 17.91821,-12.816977 23.52614,-2.2112949 2.87233,2.2791619 8.28521,8.2982739 0.44515,5.2934029 -9.24954,-1.62492 3.54136,8.236043 4.32653,12.231286 -0.26927,0.604093 7.07978,8.56686 2.60063,6.576407 z m -3.02887,-4.08809 c -2.60718,-5.951435 -8.76446,-10.951187 -10.84825,-16.520458 5.05126,0.432948 9.62319,0.561817 3.51032,-4.2211108 -3.41863,-5.8088394 -14.66282,2.5734098 -16.88125,3.6649918 7.85182,6.01207 16.14423,11.607273 24.11034,17.356084 l 0.10888,-0.279506 z m 79.47186,0.857438 c 1.61982,-6.270894 8.56172,-5.635803 8.18051,-13.097472 0.62181,-3.320073 3.79844,-7.4152165 1.76008,-0.928303 -3.16213,7.923782 4.81775,-1.507759 8.333479,-1.295231 4.746843,0.786595 14.879241,-8.9696556 13.488773,-6.8123076 -6.175575,8.4199926 -18.213382,8.6157406 -24.288102,17.1240096 -2.69421,1.366142 -4.52497,4.129924 -7.47474,5.009304 z m -16.76529,-4.518081 c 2.53461,-1.525182 7.81971,-11.779945 7.92332,-9.368894 0.5294,4.25582 -4.19133,8.375755 -7.92332,9.368894 z m -19.05148,-10.801939 c 4.33187,-2.109746 13.69194,-4.755745 4.44006,-4.123945 -3.85606,-0.148931 -11.75567,2.363204 -3.75976,-0.775751 4.84531,-1.2542116 8.28122,-2.447184 3.03511,-6.3331948 -3.6564,-6.5079394 -13.9195,-13.2244207 -16.86826,-16.3964422 7.94263,3.7108895 15.50699,9.2617326 20.22912,16.7665663 -0.11839,-2.932675 -3.68736,-15.2380093 0.37545,-6.1190592 0.21588,4.8854057 8.46116,12.6367379 1.0442,14.3125449 -2.4029,0.625266 -6.75282,3.465506 -8.49592,2.669281 z m -14.04366,-6.6401361 c -4.56455,-3.4168857 -10.6221,-10.014034 -10.25747,-15.9127854 2.43507,4.578283 6.59755,9.087968 9.64154,13.9406243 0.31567,0.7236855 3.05767,3.0376133 0.61593,1.9721611 z"
           id="path32581" /></g></g></g></svg>
